HIERARCHY
ROOT root
{
	OFFSET	0	13.1	24.9
	CHANNELS 6  Xposition Yposition Zposition Xrotation Yrotation Zrotation
	JOINT spine_1
	{
		OFFSET	0	9.99999	0
		CHANNELS 3  Xrotation Yrotation Zrotation
		JOINT spine_2
		{
			OFFSET	0	112	-10
			CHANNELS 3  Xrotation Yrotation Zrotation
			JOINT spine_3
			{
				OFFSET	0	206.5	19.3
				CHANNELS 3  Xrotation Yrotation Zrotation
				JOINT spine_4
				{
					OFFSET	0	110.4	14.6
					CHANNELS 3  Xrotation Yrotation Zrotation
					JOINT neck_1
					{
						OFFSET	0	71.8	-50.3
						CHANNELS 3  Xrotation Yrotation Zrotation
						JOINT neck_2
						{
							OFFSET	0	86.2	-25.8
							CHANNELS 3  Xrotation Yrotation Zrotation
							JOINT head_ee
							{
								OFFSET	0	179.8	-8.7
								CHANNELS 3  Xrotation Yrotation Zrotation
								End Site
								{
									OFFSET	1	0	0
								}
							}
						}
					}
					JOINT left_clavicle
					{
						OFFSET	-43.2	22.4	-70.8
						CHANNELS 3  Xrotation Yrotation Zrotation
						JOINT left_shoulder
						{
							OFFSET	-93.9	-5.79999	48.7
							CHANNELS 3  Xrotation Yrotation Zrotation
							JOINT left_elbow
							{
								OFFSET	-291.4	-30.8	15.2
								CHANNELS 3  Xrotation Yrotation Zrotation
								JOINT left_lowarm_twist
								{
									OFFSET	-110.7	-3.89999	13.6
									CHANNELS 3  Xrotation Yrotation Zrotation
									JOINT left_hand
									{
										OFFSET	-110.7	-3.89999	13.6
										CHANNELS 3  Xrotation Yrotation Zrotation
										JOINT left_ee
										{
											OFFSET	-80.8	-5.10001	12.1
											CHANNELS 3  Xrotation Yrotation Zrotation
											End Site
											{
												OFFSET	1	0	0
											}
										}
									}
								}
							}
						}
					}
					JOINT right_clavicle
					{
						OFFSET	43.2	22.4	-70.8
						CHANNELS 3  Xrotation Yrotation Zrotation
						JOINT right_shoulder
						{
							OFFSET	93.9	-5.79999	48.7
							CHANNELS 3  Xrotation Yrotation Zrotation
							JOINT right_elbow
							{
								OFFSET	291.4	-30.8	15.2
								CHANNELS 3  Xrotation Yrotation Zrotation
								JOINT right_lowarm_twist
								{
									OFFSET	110.7	-3.89999	13.6
									CHANNELS 3  Xrotation Yrotation Zrotation
									JOINT right_hand
									{
										OFFSET	110.7	-3.89999	13.6
										CHANNELS 3  Xrotation Yrotation Zrotation
										JOINT right_ee
										{
											OFFSET	80.8	-5.10001	12.1
											CHANNELS 3  Xrotation Yrotation Zrotation
											End Site
											{
												OFFSET	1	0	0
											}
										}
									}
								}
							}
						}
					}
				}
			}
		}
	}
	JOINT left_hip
	{
		OFFSET	-82.8	-127.5	0.300001
		CHANNELS 3  Xrotation Yrotation Zrotation
		JOINT left_knee
		{
			OFFSET	-28.2	-396.7	2.2
			CHANNELS 3  Xrotation Yrotation Zrotation
			JOINT left_ankle
			{
				OFFSET	-11.7	-411.3	35.4
				CHANNELS 3  Xrotation Yrotation Zrotation
				JOINT left_toes
				{
					OFFSET	0	-60	-88.6
					CHANNELS 3  Xrotation Yrotation Zrotation
					JOINT left_foot_ee
					{
						OFFSET	-22.5	-16.5	-42.2
						CHANNELS 3  Xrotation Yrotation Zrotation
						End Site
						{
							OFFSET	1	0	0
						}
					}
				}
			}
		}
	}
	JOINT right_hip
	{
		OFFSET	82.8	-127.5	0.300001
		CHANNELS 3  Xrotation Yrotation Zrotation
		JOINT right_knee
		{
			OFFSET	28.2	-396.7	2.2
			CHANNELS 3  Xrotation Yrotation Zrotation
			JOINT right_ankle
			{
				OFFSET	11.7	-411.3	35.4
				CHANNELS 3  Xrotation Yrotation Zrotation
				JOINT right_toes
				{
					OFFSET	0	-60	-88.6
					CHANNELS 3  Xrotation Yrotation Zrotation
					JOINT right_foot_ee
					{
						OFFSET	22.5	-16.5	-42.2
						CHANNELS 3  Xrotation Yrotation Zrotation
						End Site
						{
							OFFSET	1	0	0
						}
					}
				}
			}
		}
	}
}
MOTION
Frames: 15
Frame Time: 0.02
1355.12 674.739 -1588.66 -3.25568 48.5896 3.19799 3.71246 0.354331 1.86041 3.71436 0.235252 1.87918 3.72113 -0.0421414 1.89337 3.71622 0.257357 1.87628 3.83098 10.9218 -5.04279 4.64259 23.2376 -5.17343 -0.0 0.0 -0.0 -3.20245 17.7508 -2.83253 -33.4485 -21.207 69.8929 1.02475 -26.9131 0.245205 6.18562 0.176509 -0.770031 1.32332 14.4049 14.2975 -0.0 0.0 -0.0 10.61 4.0949 -21.1047 -8.37521 24.4563 -70.0503 1.10594 28.7154 -0.283096 33.1308 0.0409786 4.17365 2.59733 4.9662 -15.5927 0.0 0.0 0.0 4.78172 -57.989 -18.2655 -16.227 0.321483 2.46115 37.3927 26.8891 -4.97128 -0.885432 0.0 0.0 -0.0 0.0 -0.0 -9.19593 5.77817 3.15611 -18.9733 -0.306442 -2.8822 38.1653 18.6534 5.1297 33.4774 -0.0 -0.0 0.0 0.0 0.0 
1326.5 680.305 -1594.41 -2.3588 49.2146 2.60719 3.51761 0.172728 1.79533 3.5194 0.0581554 1.80268 3.52042 -0.212506 1.79106 3.51595 0.0729779 1.80214 4.18393 12.1657 -4.63742 5.11463 25.0061 -4.74709 -0.0 0.0 -0.0 -2.97335 17.2625 -2.5741 -32.5966 -21.6403 69.305 1.0561 -27.616 0.259565 5.78315 0.167564 -0.719396 1.51709 14.8684 15.7087 -0.0 0.0 -0.0 10.4759 3.44723 -20.7969 -11.0373 24.3137 -69.5014 1.0904 28.375 -0.275668 31.6283 -0.0131636 3.98941 2.68827 4.36274 -16.4857 0.0 0.0 0.0 5.94461 -58.5294 -15.9543 -17.0269 0.319185 2.58385 35.7153 27.0191 -4.79979 0.0751388 -0.0 -0.0 -0.0 0.0 -0.0 -10.7335 4.52334 3.40372 -19.2973 -0.303338 -2.93181 38.191 15.3706 5.01453 33.5864 -0.0 -0.0 0.0 0.0 0.0 
1300.95 685.24 -1600.71 -1.89811 48.833 2.7453 3.62582 -0.00445552 1.70781 3.62744 -0.113103 1.70407 3.62328 -0.364132 1.66856 3.6194 -0.096084 1.70512 3.38234 12.163 -2.02055 4.01231 22.8858 -1.57483 -0.0 0.0 -0.0 -4.771 17.1134 -5.42189 -28.5389 -20.3352 73.0374 1.16336 -29.9536 0.311227 5.15548 0.152904 -0.640558 0.99494 16.4165 12.8984 -0.0 0.0 -0.0 10.6387 0.440958 -21.0064 -13.6254 23.8893 -69.2928 1.0531 27.5491 -0.258177 29.1293 -0.0924448 3.68009 1.83867 2.75865 -11.2606 0.0 0.0 0.0 5.82438 -57.938 -14.8709 -19.1073 0.305192 2.90273 38.9494 26.7162 -5.12317 3.95421 -0.0 -0.0 -0.0 0.0 -0.0 -11.7587 2.75178 3.18651 -19.3629 -0.302675 -2.94186 34.8806 12.6175 4.61618 33.8259 -0.0 -0.0 0.0 0.0 0.0 
1278.53 689.21 -1603.1 -1.22901 49.3116 2.3007 3.58154 -0.153449 1.57453 3.58288 -0.253317 1.56158 3.57531 -0.482999 1.50647 3.57222 -0.23905 1.56382 3.35605 12.0531 -3.82935 4.13687 24.2283 -3.64553 -0.0 0.0 -0.0 -4.64127 15.1285 -5.69161 -27.8405 -21.6897 72.2047 1.17598 -30.2217 0.317552 5.1999 0.15397 -0.646132 1.24945 15.4487 14.1819 -0.0 0.0 -0.0 10.2909 1.67038 -20.3373 -15.1316 23.529 -69.4973 0.99599 26.2605 -0.232334 28.6502 -0.106096 3.62042 2.01479 1.59762 -12.9451 0.0 0.0 0.0 4.7555 -58.7477 -15.4424 -16.1157 0.321666 2.44407 38.3087 26.6205 -5.05554 5.43037 -0.0 -0.0 -0.0 0.0 -0.0 -11.8442 1.06139 2.76426 -20.0924 -0.294529 -3.0535 34.6599 8.4477 4.49911 33.7925 -0.0 -0.0 0.0 0.0 0.0 
1262.09 693.687 -1607.86 -0.585151 50.5029 1.51463 3.39314 -0.157375 1.59097 3.39451 -0.258281 1.57774 3.38678 -0.495324 1.52008 3.38364 -0.24907 1.57922 2.14938 12.5899 -1.03992 2.68697 22.9941 -0.23666 -0.0 0.0 -0.0 -5.04262 14.5792 -6.48415 -23.8061 -21.18 72.8182 1.14721 -29.6082 0.303203 2.9873 0.0956329 -0.369532 0.763087 16.2883 11.3938 -0.0 0.0 -0.0 10.5416 0.918073 -20.8283 -16.5822 22.0711 -69.2817 0.889989 23.7912 -0.187482 27.5153 -0.136443 3.47862 1.67029 2.614 -10.1683 0.0 0.0 0.0 5.11935 -58.0655 -13.8352 -14.8736 0.321468 2.25349 38.2427 28.5083 -5.11722 7.75613 -0.0 -0.0 -0.0 0.0 -0.0 -10.6835 0.955421 2.45211 -22.7611 -0.252636 -3.46081 36.232 3.916 4.57675 34.3291 -0.0 -0.0 0.0 0.0 0.0 
1245.52 695.375 -1606.98 -0.14069 50.1825 1.50849 3.22762 -0.0973062 1.35581 3.22863 -0.183375 1.34687 3.2239 -0.389824 1.30221 3.22158 -0.179292 1.34742 1.53681 11.0052 -1.30535 1.94129 20.504 -0.532634 -0.0 0.0 -0.0 -5.00541 14.2489 -6.50393 -20.5395 -20.7028 72.0715 1.25768 -31.9222 0.359722 1.97543 0.0654014 -0.243819 0.278552 15.7747 8.17562 -0.0 0.0 -0.0 10.1192 0.312568 -19.9169 -18.0741 22.6471 -69.1556 0.907049 24.1953 -0.194419 28.7466 -0.103391 3.63243 1.45095 1.36656 -9.18529 0.0 0.0 0.0 3.40118 -56.7786 -13.8943 -13.3443 0.315549 2.01893 38.9498 27.3811 -5.147 8.21885 -0.0 -0.0 -0.0 0.0 -0.0 -8.12749 2.27771 1.98982 -28.3904 -0.102345 -4.3113 35.6642 1.17445 4.49264 34.3425 -0.0 -0.0 0.0 0.0 0.0 
1235.39 698.692 -1610.58 -0.00403572 52.1987 1.73927 3.18988 -0.0951589 1.2787 3.19078 -0.176326 1.27005 3.18651 -0.371754 1.22717 3.18445 -0.173296 1.27047 1.46948 9.87735 1.43912 1.68689 16.2339 2.41842 -0.0 0.0 -0.0 -3.90146 9.97952 -5.5879 -18.9825 -22.2067 71.239 1.14849 -29.6358 0.303839 0.84813 0.0291101 -0.104408 -0.0833613 17.3657 6.553 -0.0 0.0 -0.0 10.0252 0.790467 -19.744 -18.8695 22.9968 -69.0147 0.817748 22.0522 -0.159343 26.5723 -0.159515 3.36037 1.63287 0.532097 -10.7609 0.0 0.0 0.0 4.99297 -53.0251 -12.5527 -12.2905 0.307828 1.85743 40.0227 27.2574 -5.24884 9.20864 -0.0 -0.0 -0.0 0.0 -0.0 -7.75152 4.54313 -0.925413 -26.9877 -0.147606 -4.10079 37.17 -5.12292 4.60431 35.1535 -0.0 -0.0 0.0 0.0 0.0 
1220.51 700.041 -1610.37 -0.088397 52.2369 2.21351 3.14587 -0.11525 1.25393 3.14672 -0.1948 1.24405 3.14215 -0.386888 1.19831 3.1402 -0.192797 1.24437 0.0512322 10.043 2.39351 0.228069 15.9523 3.61094 -0.0 0.0 -0.0 -4.59495 10.207 -6.75698 -16.794 -25.1366 70.4617 1.37813 -34.3189 0.425553 -0.372267 -0.0132653 0.0456912 0.510998 16.2937 9.81853 -0.0 0.0 -0.0 10.3119 0.155223 -20.309 -19.8859 22.6087 -68.4613 0.770043 20.8796 -0.141885 27.9126 -0.12614 3.52832 1.16421 0.579992 -7.56441 0.0 0.0 0.0 2.04253 -56.843 -14.2375 -12.413 0.308879 1.87621 42.4514 26.9596 -5.46886 9.41553 -0.0 -0.0 -0.0 0.0 -0.0 -4.55771 10.3162 -3.41891 -31.181 0.00297626 -4.72657 37.5682 -3.21849 4.64393 34.4956 -0.0 -0.0 0.0 0.0 0.0 
1211.22 701.651 -1612.88 1.37331 52.3439 1.18927 2.87568 -0.168705 1.20468 2.87645 -0.245015 1.1915 2.87109 -0.433657 1.13652 2.86937 -0.248737 1.19073 0.116901 8.913 2.5793 0.250449 13.7704 3.69432 -0.0 0.0 -0.0 -4.40382 8.73037 -6.74723 -14.0089 -22.3826 68.8016 1.47718 -36.1925 0.482734 -0.371357 -0.0132324 0.0455796 0.0588141 15.4467 6.6817 -0.0 0.0 -0.0 10.0527 -0.512587 -19.7375 -20.8215 22.3949 -68.6394 0.7558 20.5259 -0.136849 28.6409 -0.106357 3.61926 1.38182 -2.03096 -10.0826 0.0 0.0 0.0 0.350655 -54.4883 -14.3096 -11.2523 0.297318 1.69848 41.3486 28.1018 -5.4101 9.00592 -0.0 -0.0 -0.0 0.0 -0.0 -2.94865 6.15618 -3.34813 -33.2749 0.0952411 -5.03462 38.8181 -4.72271 4.75412 35.0477 -0.0 -0.0 0.0 0.0 0.0 
1199.12 705.074 -1616.14 0.814776 51.6578 1.92236 2.80983 0.00922715 1.10026 2.8105 -0.0607994 1.09861 2.80914 -0.238013 1.07425 2.80754 -0.0653799 1.09835 -0.882819 8.16648 1.98829 -0.779408 13.0466 3.06301 -0.0 0.0 -0.0 -4.83564 7.8424 -7.72637 -11.765 -22.3245 69.1872 1.61507 -38.6588 0.566552 -1.40768 -0.0517212 0.172319 -0.287891 15.5404 4.56808 -0.0 0.0 -0.0 10.1635 -2.55864 -19.8407 -20.5275 22.4312 -68.3346 0.637194 17.5183 -0.0981784 27.7767 -0.129702 3.51133 1.30831 -2.37384 -9.72279 0.0 0.0 0.0 2.15991 -52.3438 -12.8647 -12.8505 0.312301 1.94324 40.1306 27.7558 -5.27826 10.9509 -0.0 -0.0 -0.0 0.0 -0.0 -1.71775 8.09611 -4.45824 -33.9715 0.128425 -5.13633 39.9919 -8.14986 4.86456 34.1722 -0.0 -0.0 0.0 0.0 0.0 
1190.69 704.775 -1618.8 0.592957 51.0605 2.59621 2.69774 0.0156652 0.939022 2.69823 -0.0441163 0.938116 2.69738 -0.197327 0.91819 2.69621 -0.0498463 0.937829 0.651865 8.04264 2.17891 0.767271 12.4761 3.13804 -0.0 0.0 -0.0 -4.64225 6.65252 -7.63859 -11.0302 -23.5978 67.4112 1.63761 -39.0466 0.580691 -2.57719 -0.0979048 0.314495 -0.0310174 13.6382 5.40732 -0.0 0.0 -0.0 9.80742 -2.26311 -19.1389 -21.6723 22.324 -68.4008 0.719488 19.6167 -0.124387 28.7784 -0.102492 3.6364 1.43093 -4.26116 -11.2874 0.0 0.0 0.0 1.19905 -49.2518 -13.9254 -11.7664 0.302883 1.77718 40.4912 27.0516 -5.28681 11.4114 -0.0 -0.0 -0.0 0.0 -0.0 -0.805999 4.9619 -4.21573 -34.6598 0.162433 -5.23645 40.8159 -6.12373 4.92886 35.3994 -0.0 -0.0 0.0 0.0 0.0 
1173.43 707.552 -1616.85 2.28284 51.7821 0.844356 2.51449 0.0515188 0.925263 2.51497 -0.00745991 0.926666 2.51476 -0.162194 0.912393 2.51359 -0.0160694 0.926556 -1.37866 7.54314 3.43893 -1.29883 10.8208 4.56376 -0.0 0.0 -0.0 -5.20571 6.95715 -8.61042 -8.91084 -23.1495 67.9761 1.81371 -41.9344 0.695075 -3.69253 -0.144648 0.449194 -0.472829 13.4861 2.57283 -0.0 0.0 -0.0 10.0459 -1.25751 -19.6826 -22.5605 22.1513 -67.6811 0.62842 17.2915 -0.0955539 28.1581 -0.119601 3.559 1.12873 -8.08183 -10.7341 0.0 0.0 0.0 0.777275 -49.8583 -11.48 -11.9253 0.30446 1.8015 41.9391 25.2868 -5.36011 14.3077 -0.0 -0.0 -0.0 0.0 -0.0 7.61411 6.34536 -3.00207 -53.1866 1.51088 -7.73341 40.3998 -7.90089 4.89883 40.0625 -0.0 -0.0 0.0 0.0 0.0 
1160.94 713.313 -1615.47 3.42944 50.7135 -0.0725891 2.33981 0.257146 0.894513 2.34023 0.199707 0.909061 2.34337 0.0422484 0.929778 2.34222 0.188553 0.91144 -2.76061 6.29299 2.62638 -2.71418 9.36742 3.62706 -0.0 0.0 -0.0 -4.47573 7.32181 -7.18583 -7.50192 -21.4608 67.0185 1.89473 -43.1812 0.749874 -4.65768 -0.187211 0.565013 -1.38536 11.4357 -4.07973 -0.0 0.0 -0.0 10.1559 -0.833427 -19.9322 -23.1102 22.3504 -67.3167 0.568842 15.7373 -0.0786169 26.761 -0.155054 3.38406 0.967041 -9.69674 -10.2815 0.0 0.0 0.0 0.563971 -47.3213 -10.0356 -11.8635 0.303855 1.79204 42.4663 26.3814 -5.4482 16.2563 -0.0 -0.0 -0.0 0.0 -0.0 13.9166 8.22543 -2.59311 -61.1877 2.32959 -8.65498 40.7358 -7.85452 4.9275 39.9288 -0.0 -0.0 0.0 0.0 0.0 
1148.85 711.461 -1612.85 3.80655 49.2854 -0.70741 2.16707 0.324697 0.894389 2.16748 0.26713 0.913235 2.17175 0.105156 0.945671 2.17059 0.253181 0.9172 -3.34076 5.55475 2.80308 -3.30439 7.94523 3.73343 -0.0 0.0 -0.0 -4.74245 7.9613 -7.52982 -6.19742 -20.6944 67.0632 2.09172 -46.0122 0.888226 -5.00605 -0.203054 0.606642 -1.94634 8.03731 -9.29961 -0.0 0.0 -0.0 10.1206 -0.131855 -19.8974 -23.5107 22.2406 -66.6508 0.608068 16.7634 -0.0895942 26.3143 -0.165488 3.32796 0.932424 -12.1295 -10.9626 0.0 0.0 0.0 0.198676 -46.0165 -8.74918 -11.1458 0.296078 1.6822 42.4765 25.8622 -5.42993 19.1837 -0.0 -0.0 -0.0 0.0 -0.0 16.4282 6.98172 -0.953382 -65.5169 2.82422 -9.10397 40.4226 -9.37451 4.90894 39.1286 -0.0 -0.0 0.0 0.0 0.0 
1142.75 714.369 -1609.27 2.36793 48.6463 0.271495 2.36829 0.324725 1.03713 2.36885 0.258076 1.05568 2.37358 0.075421 1.08415 2.37202 0.245686 1.05864 -4.66642 5.37108 3.9023 -4.62164 6.90488 4.88833 -0.0 0.0 -0.0 -4.51484 8.17498 -7.06949 -4.7149 -17.4973 67.114 2.23589 -47.916 0.99362 -5.6058 -0.230921 0.678084 -2.49034 5.37901 -14.2299 -0.0 0.0 -0.0 10.4782 0.167625 -20.6557 -23.6914 22.546 -65.9253 0.560139 15.5082 -0.0762732 26.2878 -0.166094 3.32462 0.815172 -13.6103 -10.7537 0.0 0.0 0.0 0.202536 -43.9982 -8.73439 -8.57945 0.257025 1.29037 41.5762 26.5238 -5.37074 21.2423 -0.0 -0.0 -0.0 0.0 -0.0 19.5785 10.2453 -2.98277 -65.9164 2.87157 -9.14351 39.3512 -11.6367 4.83289 38.4586 -0.0 -0.0 0.0 0.0 0.0 
